<?xml version="1.0" encoding="UTF-8"?>
<svg id="Calque_1" data-name="Calque 1" xmlns="http://www.w3.org/2000/svg" viewBox="0 0 2500 2500">
  <defs>
    <style>
      .cls-1 {
        fill: #36a9e1;
      }

      .cls-1, .cls-2 {
        stroke-width: 0px;
      }

      .cls-2 {
        fill: #f6f6f6;
      }
    </style>
  </defs>
  <path class="cls-1" d="M91.26,1327.1c.35,1.8,1.74,2.15,2.24,2.27l773.21,208.31,1.09.3v-301.1l-775.52-208.89-1.09-.3v297.59h-8.46v.87h0v.87s8.53.08,8.53.08Z"/>
  <polygon class="cls-2" points="1283.76 2136.44 1263.74 2141.82 1263.96 2142.65 1263.72 2141.82 1263.06 2141.98 1263.06 2443.15 1284.63 2437.34 1284.63 2137.3 1284.63 2136.44 1283.76 2136.44"/>
  <path class="cls-1" d="M1175.3,2215.93c0,39.42-12.39,71.47-35.83,92.71-19.28,17.48-44.54,26.73-73.04,26.73-4.25,0-8.59-.21-12.91-.62-293.9-28.82-658.54-125.2-848.19-224.19-34.8-18.12-56.42-54.08-56.42-93.83v-167.78l-57.71-15.54v297.6h-12.01v.87h0v.87s12.07.12,12.07.12c.33,1.74,1.71,2.12,2.21,2.25l1142.45,307.75,1.09.3v-301.19s-61.71-16.57-61.71-16.57v90.53Z"/>
  <path class="cls-1" d="M136.46,1789.52l-.23-.06-42.71,11.52c-.58.14-2.33.58-2.33,3.03v.87s.01.03.01.03c.14,1.58,1.83,2,2.37,2.13l71.68,19.31.23.06,52.06-14.74-81.08-22.15Z"/>
  <path class="cls-1" d="M93.5,1732.23l773.21,208.31,1.09.3v-301.16l-775.52-208.82-1.09-.3v297.6h-14.73v1.74s14.8.15,14.8.15c.35,1.73,1.74,2.08,2.23,2.2Z"/>
  <path class="cls-1" d="M147.97,1383.41l-54.45,14.71c-.58.14-2.33.58-2.33,3.02v.87s.01.04.01.04c.14,1.58,1.83,2,2.37,2.13l773.14,208.24,1.09.3v-32.56l-719.6-196.68-.23-.06Z"/>
  <path class="cls-1" d="M472.17,1936l.22,1.33c1.01,6.16,5.08,11.59,10.88,14.53h0c108.94,54.76,231.19,87.25,363.31,96.57.51.04,1.01.06,1.51.06,4.86,0,9.56-1.87,13.4-5.38l.18-.17c.2-.18.42-.39.6-.62l.78-1.02-389.59-104.94-1.3-.35Z"/>
  <path class="cls-2" d="M707.94,626.85c-17.64,68.26-31.66,130.77-41.69,185.79-.42,2.29-.83,4.51-1.25,6.74-1.32,7.21-2.63,14.9-4.02,23.49-9.18,55.08-13.84,102.31-13.84,140.38,0,10.12,39.44,47.27,219.57,96.97l1.1.3v-367.22l-159.59-87.54-.28,1.08Z"/>
  <polygon class="cls-1" points="1237.02 1336.33 1175.3 1319.69 1175.3 1620.78 1237.01 1637.42 1237.02 1336.33"/>
  <path class="cls-2" d="M1333.17,403.27l-1.95.25c-36.47,4.71-74.68,5.41-94.22,5.41-27.36,0-95.76-1.4-139.79-14.41l-.5-.15-189.64,192.85-11.19,11.39-2.06,2.13v1427.72c0,7.13-1.7,14.23-4.91,20.53-2.43,5.01-5.71,9.45-9.74,13.22-9.26,8.64-21.86,13.08-34.43,12.2-135.54-9.58-261.11-42.97-373.21-99.24-15.77-7.99-25.57-23.79-25.57-41.25v-12.29c0-7.08,3.75-13.72,9.82-17.33,1.46-.95,3.13-1.69,5.11-2.25l72.76-19.88-240.72-64.59-.23-.06-75.01,21.22-8.99,2.45,2.67.91c2.91.99,5.94,2.09,8.97,3.25,8.55,3.53,15.46,7.37,22.14,11.08,12.55,6.97,23.39,12.99,39.87,13.77l3.47.31c22.04,1.93,46.99,4.12,63.35,20.6l-4.82,5.44c-3.64-2.9-7.81-5.28-12.81-7.29l-13.27-3.49c-4.25-.73-8.76-1.12-13.8-1.19-4.35-.16-8.7-.09-13.29-.01-3.21.05-6.46.12-9.79.08-7.12-.06-15.63-.4-24.65-2.4-8.9-2.37-16.63-5.89-24.11-9.29-2.92-1.33-5.69-2.59-8.42-3.73-3.88-1.67-7.33-2.87-10.54-3.65-6.69-1.79-12.49-3.09-17.73-3.98-7.52-1.22-14.14-1.59-20.21-1.12l-.8.06v156.18c0,29.98,16.25,57.1,42.42,70.78,187.1,97.61,547.65,192.76,838.69,221.32,3.48.34,6.92.51,10.3.51,21.69,0,41.15-6.93,55.59-19.97,17.87-16.25,27.31-41.64,27.31-73.43V666.65l182.8-261.77,1.13-1.61Z"/>
  <polygon class="cls-1" points="1237.02 1739.12 1175.3 1722.55 1175.3 2023.64 1237.01 2040.28 1237.02 1739.12"/>
  <polygon class="cls-1" points="867.8 2015.57 867.8 1989.39 554.19 1903.71 553.96 1903.65 503.55 1917.48 866.71 2015.27 867.8 2015.57"/>
  <path class="cls-1" d="M93.5,1001.31l773.21,208.24,1.09.3v-97.09l-.64-.17c-251.14-68.04-251.14-114.17-251.14-129.33,0-36.1,4-80.08,11.86-130.73l.21-1.32L93.32,995.26c-.58.21-2.13.76-2.13,3.01v.87h.1c.2.91.78,1.82,2.21,2.18Z"/>
  <path class="cls-2" d="M1250,1146.65c83.88,0,236.93-25.55,372.17-62.13,188.42-50.92,230.83-91.18,230.83-101.27v-.87h-.97c0-1.94,0-3.89-.07-5.88-.56-36.86-5.22-81.91-13.84-133.9-1.49-9.13-2.77-16.59-4.03-23.5l-.39-2.15c-.26-1.51-.54-3.03-.86-4.51-10.17-55.72-24.18-118.16-41.62-185.58l-.28-1.08-540.88,297.11-73.48-40.27-1.29-.7v259.79l.77.08c28.64,3.23,53.51,4.87,73.93,4.87Z"/>
  <polygon class="cls-2" points="1311.33 2128.97 1310.68 2129.14 1310.68 2430.33 2385.47 2140.81 2386.12 2140.64 2386.12 1840.64 2386.1 1839.51 1311.33 2128.97"/>
  <polygon class="cls-2" points="2386.12 1334.85 2386.12 1034.92 2386.1 1033.79 1311.33 1323.38 1310.68 1323.56 1310.68 1624.58 2385.52 1335.04 2386.12 1334.85"/>
  <path class="cls-1" d="M93.5,369.45l783.21,210.94.49.13,193.24-196.51.73-.74-.85-.59c-8.05-5.56-12.13-12-12.13-19.15,0-42.12,136.88-45.39,178.82-45.39s178.89,3.27,178.89,45.39c0,14.03-15.44,25.1-45.89,32.91l-.31.08-185.43,265.52-.71,1.02,66.28,17.82.22.06,1156.69-311.58c.64-.23,2.12-.77,2.12-3,0-1.13-.4-2.58-2.32-3.06L1250.9,52.03c-.35-.12-.66-.12-.83-.12-.25,0-.56,0-.85.1L93.51,363.33c-1.93.48-2.33,1.93-2.33,3.06,0,2.23,1.49,2.77,2.31,3.06Z"/>
  <path class="cls-1" d="M2406.57,995.2l-534.28-143.92-1.28-.35.2,1.32c7.21,46.78,11.18,87.73,11.83,121.91.71,2.84,1.09,5.98,1.09,9.1,0,41.56-85.41,85.75-253.85,131.34-139.76,37.79-292.58,63.17-380.27,63.17-20.4,0-45.21-1.56-73.74-4.65l-.96-.1v119.64l74.55,20.11.22.06,1156.49-311.51c1.92-.48,2.33-1.93,2.33-3.06,0-2.24-1.55-2.79-2.31-3.06Z"/>
  <polygon class="cls-2" points="1284.63 1631.48 1284.63 1331.65 1284.79 1330.19 1283.54 1330.82 1263.72 1336.17 1263.06 1336.33 1263.06 1636.24 1263.09 1637.36 1284.15 1631.73 1284.63 1631.48"/>
  <path class="cls-1" d="M2406.57,1800.91l-41.54-11.19,2.41,2.41-1117.38,301.77-73.67-20.15-1.1-.3v25l74.48,20.04.22.06,1156.55-311.51c.58-.14,2.33-.58,2.33-3.06,0-2.23-1.49-2.77-2.31-3.06Z"/>
  <polygon class="cls-2" points="1284.63 2034.34 1284.63 1734.44 1284.63 1733.58 1283.76 1733.58 1263.72 1738.96 1263.06 1739.12 1263.06 2039.17 1263.09 2040.29 1284.15 2034.59 1284.63 2034.34"/>
  <polygon class="cls-2" points="2386.12 1737.71 2386.12 1437.78 2386.1 1436.65 1311.33 1726.11 1310.68 1726.28 1310.68 2027.51 2385.52 1737.9 2386.12 1737.71"/>
  <path class="cls-1" d="M2406.57,1398.06l-47.51-12.78-.22-.06-1108.77,299.44-73.67-20.15-1.1-.3v31.39l74.48,20.04.22.06,1156.55-311.51c.58-.14,2.33-.58,2.33-3.06,0-2.24-1.55-2.79-2.31-3.06Z"/>
</svg>