<?xml version="1.0" encoding="UTF-8"?>
<svg id="Calque_1" data-name="Calque 1" xmlns="http://www.w3.org/2000/svg" viewBox="0 0 2500 2500">
  <defs>
    <style>
      .cls-1 {
        fill: #29235c;
      }

      .cls-1, .cls-2, .cls-3 {
        stroke-width: 0px;
      }

      .cls-2 {
        fill: #36a9e1;
      }

      .cls-3 {
        fill: #f6f6f6;
      }
    </style>
  </defs>
  <g>
    <path class="cls-2" d="M91.26,1327.1c.35,1.8,1.74,2.15,2.24,2.27l773.21,208.31,1.09.3v-301.1l-775.52-208.89-1.09-.3v297.59h-8.46v.87h0v.87s8.53.08,8.53.08Z"/>
    <polygon class="cls-3" points="1283.76 2136.44 1263.74 2141.82 1263.96 2142.65 1263.72 2141.82 1263.06 2141.98 1263.06 2443.15 1284.63 2437.34 1284.63 2137.3 1284.63 2136.44 1283.76 2136.44"/>
    <path class="cls-2" d="M1175.3,2215.93c0,39.42-12.39,71.47-35.83,92.71-19.28,17.48-44.54,26.73-73.04,26.73-4.25,0-8.59-.21-12.91-.62-293.9-28.82-658.54-125.2-848.19-224.19-34.8-18.12-56.42-54.08-56.42-93.83v-167.78l-57.71-15.54v297.6h-12.01v.87h0v.87s12.07.12,12.07.12c.33,1.74,1.71,2.12,2.21,2.25l1142.45,307.75,1.09.3v-301.19s-61.71-16.57-61.71-16.57v90.53Z"/>
    <path class="cls-2" d="M136.46,1789.52l-.23-.06-42.71,11.52c-.58.14-2.33.58-2.33,3.03v.87s.01.03.01.03c.14,1.58,1.83,2,2.37,2.13l71.68,19.31.23.06,52.06-14.74-81.08-22.15Z"/>
    <path class="cls-2" d="M93.5,1732.23l773.21,208.31,1.09.3v-301.16l-775.52-208.82-1.09-.3v297.6h-14.73v1.74s14.8.15,14.8.15c.35,1.73,1.74,2.08,2.23,2.2Z"/>
    <path class="cls-2" d="M147.97,1383.41l-54.45,14.71c-.58.14-2.33.58-2.33,3.02v.87s.01.04.01.04c.14,1.58,1.83,2,2.37,2.13l773.14,208.24,1.09.3v-32.56l-719.6-196.68-.23-.06Z"/>
    <path class="cls-2" d="M472.17,1936l.22,1.33c1.01,6.16,5.08,11.59,10.88,14.53h0c108.94,54.76,231.19,87.25,363.31,96.57.51.04,1.01.06,1.51.06,4.86,0,9.56-1.87,13.4-5.38l.18-.17c.2-.18.42-.39.6-.62l.78-1.02-389.59-104.94-1.3-.35Z"/>
    <path class="cls-3" d="M707.94,626.85c-17.64,68.26-31.66,130.77-41.69,185.79-.42,2.29-.83,4.51-1.25,6.74-1.32,7.21-2.63,14.9-4.02,23.49-9.18,55.08-13.84,102.31-13.84,140.38,0,10.12,39.44,47.27,219.57,96.97l1.1.3v-367.22l-159.59-87.54-.28,1.08Z"/>
    <polygon class="cls-2" points="1237.02 1336.33 1175.3 1319.69 1175.3 1620.78 1237.01 1637.42 1237.02 1336.33"/>
    <path class="cls-3" d="M1333.17,403.27l-1.95.25c-36.47,4.71-74.68,5.41-94.22,5.41-27.36,0-95.76-1.4-139.79-14.41l-.5-.15-189.64,192.85-11.19,11.39-2.06,2.13v1427.72c0,7.13-1.7,14.23-4.91,20.53-2.43,5.01-5.71,9.45-9.74,13.22-9.26,8.64-21.86,13.08-34.43,12.2-135.54-9.58-261.11-42.97-373.21-99.24-15.77-7.99-25.57-23.79-25.57-41.25v-12.29c0-7.08,3.75-13.72,9.82-17.33,1.46-.95,3.13-1.69,5.11-2.25l72.76-19.88-240.72-64.59-.23-.06-75.01,21.22-8.99,2.45,2.67.91c2.91.99,5.94,2.09,8.97,3.25,8.55,3.53,15.46,7.37,22.14,11.08,12.55,6.97,23.39,12.99,39.87,13.77l3.47.31c22.04,1.93,46.99,4.12,63.35,20.6l-4.82,5.44c-3.64-2.9-7.81-5.28-12.81-7.29l-13.27-3.49c-4.25-.73-8.76-1.12-13.8-1.19-4.35-.16-8.7-.09-13.29-.01-3.21.05-6.46.12-9.79.08-7.12-.06-15.63-.4-24.65-2.4-8.9-2.37-16.63-5.89-24.11-9.29-2.92-1.33-5.69-2.59-8.42-3.73-3.88-1.67-7.33-2.87-10.54-3.65-6.69-1.79-12.49-3.09-17.73-3.98-7.52-1.22-14.14-1.59-20.21-1.12l-.8.06v156.18c0,29.98,16.25,57.1,42.42,70.78,187.1,97.61,547.65,192.76,838.69,221.32,3.48.34,6.92.51,10.3.51,21.69,0,41.15-6.93,55.59-19.97,17.87-16.25,27.31-41.64,27.31-73.43V666.65l182.8-261.77,1.13-1.61Z"/>
    <polygon class="cls-2" points="1237.02 1739.12 1175.3 1722.55 1175.3 2023.64 1237.01 2040.28 1237.02 1739.12"/>
    <polygon class="cls-2" points="867.8 2015.57 867.8 1989.39 554.19 1903.71 553.96 1903.65 503.55 1917.48 866.71 2015.27 867.8 2015.57"/>
    <path class="cls-2" d="M93.5,1001.31l773.21,208.24,1.09.3v-97.09l-.64-.17c-251.14-68.04-251.14-114.17-251.14-129.33,0-36.1,4-80.08,11.86-130.73l.21-1.32L93.32,995.26c-.58.21-2.13.76-2.13,3.01v.87h.1c.2.91.78,1.82,2.21,2.18Z"/>
    <path class="cls-3" d="M1250,1146.65c83.88,0,236.93-25.55,372.17-62.13,188.42-50.92,230.83-91.18,230.83-101.27v-.87h-.97c0-1.94,0-3.89-.07-5.88-.56-36.86-5.22-81.91-13.84-133.9-1.49-9.13-2.77-16.59-4.03-23.5l-.39-2.15c-.26-1.51-.54-3.03-.86-4.51-10.17-55.72-24.18-118.16-41.62-185.58l-.28-1.08-540.88,297.11-73.48-40.27-1.29-.7v259.79l.77.08c28.64,3.23,53.51,4.87,73.93,4.87Z"/>
    <polygon class="cls-3" points="1311.33 2128.97 1310.68 2129.14 1310.68 2430.33 2385.47 2140.81 2386.12 2140.64 2386.12 1840.64 2386.1 1839.51 1311.33 2128.97"/>
    <polygon class="cls-3" points="2386.12 1334.85 2386.12 1034.92 2386.1 1033.79 1311.33 1323.38 1310.68 1323.56 1310.68 1624.58 2385.52 1335.04 2386.12 1334.85"/>
    <path class="cls-2" d="M93.5,369.45l783.21,210.94.49.13,193.24-196.51.73-.74-.85-.59c-8.05-5.56-12.13-12-12.13-19.15,0-42.12,136.88-45.39,178.82-45.39s178.89,3.27,178.89,45.39c0,14.03-15.44,25.1-45.89,32.91l-.31.08-185.43,265.52-.71,1.02,66.28,17.82.22.06,1156.69-311.58c.64-.23,2.12-.77,2.12-3,0-1.13-.4-2.58-2.32-3.06L1250.9,52.03c-.35-.12-.66-.12-.83-.12-.25,0-.56,0-.85.1L93.51,363.33c-1.93.48-2.33,1.93-2.33,3.06,0,2.23,1.49,2.77,2.31,3.06Z"/>
    <path class="cls-2" d="M2406.57,995.2l-534.28-143.92-1.28-.35.2,1.32c7.21,46.78,11.18,87.73,11.83,121.91.71,2.84,1.09,5.98,1.09,9.1,0,41.56-85.41,85.75-253.85,131.34-139.76,37.79-292.58,63.17-380.27,63.17-20.4,0-45.21-1.56-73.74-4.65l-.96-.1v119.64l74.55,20.11.22.06,1156.49-311.51c1.92-.48,2.33-1.93,2.33-3.06,0-2.24-1.55-2.79-2.31-3.06Z"/>
    <polygon class="cls-3" points="1284.63 1631.48 1284.63 1331.65 1284.79 1330.19 1283.54 1330.82 1263.72 1336.17 1263.06 1336.33 1263.06 1636.24 1263.09 1637.36 1284.15 1631.73 1284.63 1631.48"/>
    <path class="cls-2" d="M2406.57,1800.91l-41.54-11.19,2.41,2.41-1117.38,301.77-73.67-20.15-1.1-.3v25l74.48,20.04.22.06,1156.55-311.51c.58-.14,2.33-.58,2.33-3.06,0-2.23-1.49-2.77-2.31-3.06Z"/>
    <polygon class="cls-3" points="1284.63 2034.34 1284.63 1734.44 1284.63 1733.58 1283.76 1733.58 1263.72 1738.96 1263.06 1739.12 1263.06 2039.17 1263.09 2040.29 1284.15 2034.59 1284.63 2034.34"/>
    <polygon class="cls-3" points="2386.12 1737.71 2386.12 1437.78 2386.1 1436.65 1311.33 1726.11 1310.68 1726.28 1310.68 2027.51 2385.52 1737.9 2386.12 1737.71"/>
    <path class="cls-2" d="M2406.57,1398.06l-47.51-12.78-.22-.06-1108.77,299.44-73.67-20.15-1.1-.3v31.39l74.48,20.04.22.06,1156.55-311.51c.58-.14,2.33-.58,2.33-3.06,0-2.24-1.55-2.79-2.31-3.06Z"/>
  </g>
  <path class="cls-1" d="M2413.54,1027.29c13.27-3.54,22.23-15.21,22.23-29.03s-8.96-25.42-22.23-29.03l-546.5-147.18c-.42-2.85-.97-5.7-1.46-8.54-13.13-73.28-33.06-158.78-59.32-254.5l607.27-163.57c13.27-3.61,22.23-15.28,22.23-29.03s-8.96-25.42-22.23-29.03L1257.82,26.04c-5.07-1.39-10.49-1.39-15.63,0L86.46,337.36c-13.27,3.61-22.23,15.21-22.23,29.03s8.96,25.42,22.23,29.03l606.44,163.37c-26.26,95.78-46.33,181.56-59.39,254.91-.48,2.85-1.04,5.7-1.53,8.54L86.46,969.22c-13.27,3.61-22.23,15.28-22.23,29.03,0,.04.01.08.01.13v327.58h-.01v.21c-.07,13.96,8.89,25.63,22.23,29.24l30.98,8.34-30.98,8.33c-13.27,3.61-22.23,15.28-22.23,29.03v1.46s.01.05.01.08v326.24h-.01v.14c-.07,13.89,8.89,25.63,22.23,29.24l30.98,8.34-30.98,8.33c-13.27,3.61-22.23,15.28-22.23,29.03v1.46s.01.05.01.08v326.21h0s0,.06,0,.09v.05h0c-.07,13.92,8.84,25.67,22.21,29.24l1155.38,311.22,8.16,2.66,8.17-2.66,1155.37-311.22c13.29-3.58,22.23-15.25,22.23-29.04,0-16.71-13.19-22.58-20.28-25.73-.87-.38-1.68-.76-2.48-1.14v-272.07l.54-.13c13.34-3.54,22.23-15.21,22.23-29.03s-8.89-25.42-22.23-29.03l-30.98-8.33,30.98-8.34c13.27-3.61,22.23-15.28,22.23-29.03,0-16.74-13.2-22.57-20.28-25.77-.9-.34-1.72-.76-2.48-1.1v-272.08l.54-.13c13.34-3.54,22.23-15.21,22.23-29.03s-8.89-25.42-22.23-29.03l-30.98-8.33,30.98-8.34c13.27-3.61,22.23-15.28,22.23-29.1,0-16.67-13.2-22.57-20.28-25.7-.9-.34-1.72-.76-2.48-1.1v-272.08l.54-.13ZM2406.31,996.03c.56.21,1.67.49,1.67,2.22s-1.11,2.08-1.67,2.22l-1156.28,311.45-73.9-19.93v-118.01c28.27,3.06,53.35,4.65,73.83,4.65,87.8,0,240.74-25.42,380.5-63.21,168.85-45.7,254.5-90.16,254.5-132.18,0-3.06-.35-6.25-1.11-9.31-.62-34.1-4.59-74.95-11.81-121.83l534.28,143.92ZM1148.35,1641.37v574.56c0,31.6-9.38,56.75-27.02,72.79-16.46,14.86-39.66,21.74-65.22,19.24-290.89-28.55-651.31-123.64-838.37-221.23-25.91-13.54-41.95-40.36-41.95-70.01v-155.38c6.39-.49,13.13,0,20,1.11,5.77.97,11.67,2.36,17.64,3.96,3.41.83,6.88,2.08,10.42,3.61,9.66,4.03,20.15,9.72,32.65,13.06,8.75,1.95,17.02,2.36,24.87,2.43,7.99.07,15.63-.35,23.06-.07,4.65.07,9.24.42,13.68,1.18l13.2,3.47c4.65,1.88,9.1,4.31,13.13,7.64l2.98-3.33,2.92-3.33c-17.43-18.13-44.66-19.66-67.93-21.74-24.93-1.18-36.88-14.52-61.75-24.8-2.92-1.11-5.97-2.22-9.03-3.26l6.04-1.67h.07l48.48-13.68h.07l26.39-7.5,237.62,63.76-29.1,7.92-40.56,11.11c-1.95.56-3.75,1.32-5.35,2.36-6.18,3.68-10.21,10.56-10.21,18.06v12.29c0,17.85,10,33.9,26.05,42.02,112.25,56.33,237.97,89.74,373.55,99.33,12.85.9,25.63-3.61,35.08-12.43,4.17-3.89,7.5-8.47,9.93-13.48,3.26-6.39,5-13.61,5-20.91V601.09l1.81-1.88,11.18-11.39,189.27-192.47c43.97,12.99,112.45,14.45,140.03,14.45,19.03,0,57.72-.69,94.33-5.42l-174.9,250.47-8.06,11.53v974.99ZM866.9,2014.43l-360.07-96.96,47.09-12.92,312.98,85.5v24.38ZM861.55,2041.8c-.21.28-.48.49-.7.69-3.96,3.61-9.03,5.49-14.24,5.07-131.9-9.31-254.08-41.74-362.99-96.48-5.63-2.85-9.45-7.99-10.42-13.89l388.34,104.61ZM1283.72,1630.95l-19.8,5.28h-.03s0-299.22,0-299.22h.03s19.8-5.36,19.8-5.36h.01s0,299.29,0,299.29h-.01ZM1236.11,1636.29l-59.98-16.17v-299.3l59.99,16.18v299.3ZM1283.73,2033.81h-.01s-19.8,5.35-19.8,5.35h-.03s0-299.36,0-299.36h.03s19.8-5.36,19.8-5.36h.01s0,299.36,0,299.36ZM1236.11,2039.15l-59.98-16.17v-299.3l59.99,16.11v299.36ZM1831.96,812.59c.49,2.22.83,4.45,1.25,6.67,1.46,7.99,2.78,15.84,4.03,23.48,8.68,52.37,13.27,97.17,13.82,133.78.07,2.29.07,4.51.07,6.74h.97c0,9.93-42.3,49.66-230.18,100.44-135.1,36.53-288.05,62.1-371.95,62.1-20.42,0-45.49-1.67-73.83-4.86v-257.55l73.9,40.49,292.28-160.52h.07l35.08-19.31,212.89-116.97c17.64,68.21,31.53,130.37,41.6,185.52ZM93.69,368.61c-.56-.21-1.67-.49-1.67-2.22s1.11-2.08,1.67-2.22L1249.41,52.85c.21-.07.41-.07.62-.07.14,0,.35,0,.56.07l1155.72,311.31c.56.14,1.67.49,1.67,2.22s-1.11,2.01-1.67,2.22l-1111.27,299.3-45.01,12.16-45.08-12.16-20-5.35,185.25-265.26c26.81-6.88,46.54-17.5,46.54-33.76,0-42.93-137.6-46.26-179.76-46.26s-179.69,3.33-179.69,46.26c0,7.92,4.65,14.45,12.5,19.87l-192.89,196.15L93.69,368.61ZM708.74,627.07l158.16,86.75v365.56c-178.23-49.18-218.93-86.62-218.93-96.13,0-37.72,4.59-84.81,13.82-140.24,1.25-7.71,2.57-15.49,4.03-23.48.42-2.22.83-4.45,1.25-6.74,10.07-55.29,24.03-117.45,41.68-185.73ZM93.69,996.03l533.3-143.64c-7.92,50.91-11.88,94.81-11.88,130.86,0,15.42,0,61.96,251.79,130.17v95.3L93.69,1000.48c-.55-.14-1.63-.49-1.66-2.16v-.04h0s0,0,0-.01c0-1.74,1.11-2.01,1.67-2.22ZM93.69,1328.53c-.56-.14-1.67-.42-1.67-2.29l-6.95-.07-2.38-.02h9.33v-297.33l774.87,208.72v299.3l-773.21-208.31ZM93.69,1398.96l54.25-14.66,718.96,196.5v30.77l-773.14-208.24c-.55-.14-1.64-.42-1.73-1.37v-.83h-.01v-.02c0-1.74,1.11-2.01,1.67-2.15ZM93.69,1731.39c-.56-.14-1.67-.42-1.67-2.22l-15.58-.16h15.59v-297.33l774.87,208.65v299.37l-773.21-208.31ZM93.69,1801.82l42.51-11.46,78.07,21.32-48.83,13.82-71.68-19.31c-.55-.14-1.64-.42-1.73-1.37v-.82h-.01v-.03c0-1.74,1.11-2.01,1.67-2.15ZM92.02,2132.01l-12.87-.13h12.88v-297.34l55.97,15.07v167.12c0,40.08,21.81,76.34,56.89,94.6,189.76,99.05,554.56,195.46,848.51,224.28,4.38.42,8.75.62,12.99.62,28.48,0,54.25-9.38,73.63-26.95,23.62-21.39,36.12-53.69,36.12-93.35v-89.39l59.99,16.11v299.39S93.66,2134.28,93.66,2134.28c-.54-.15-1.66-.44-1.63-2.28ZM2385.22,2139.97l-1073.7,289.22v-299.39l1073.68-289.15h.02s0,299.32,0,299.32ZM1283.73,2436.68l-19.84,5.34v-299.36s.03,0,.03,0l19.8-5.35h.01s0,299.37,0,299.37ZM2406.31,1801.75c.56.21,1.67.49,1.67,2.22s-1.11,2.08-1.67,2.22l-1156.35,311.45-73.83-19.86v-23.2l73.9,20.21,1119.05-302.21-1.18-1.18,38.41,10.35ZM1311.52,2026.38v-299.44l1073.68-289.15h.02s0,299.29,0,299.29h-.02s-1073.68,289.3-1073.68,289.3ZM2406.31,1398.89c.56.21,1.67.49,1.67,2.22s-1.11,2.08-1.67,2.22l-1156.35,311.45-73.83-19.86v-29.59l73.9,20.21,1108.77-299.44,47.51,12.78ZM1311.52,1623.45v-299.23l1073.68-289.29h.02s0,299.29,0,299.29h-.02s-1073.68,289.23-1073.68,289.23Z"/>
</svg>