<svg id="Calque_1" data-name="Calque 1" xmlns="http://www.w3.org/2000/svg" viewBox="7.969 62.159 2396.402 757.163">
  <defs>
    <style>
      .cls-1 {
        fill: #36a9e1;
      }

      .cls-1, .cls-2 {
        stroke-width: 0px;
      }

      .cls-2 {
        fill: #fff;
      }
    </style>
  </defs>
  <g>
    <path class="cls-1" d="M110.05,564.38c-40.63,0-68.99-16.53-85.05-49.59l57.85-34.09c5.51,11.25,14.46,16.87,26.86,16.87,14,0,21.01-6.54,21.01-19.63v-160.12h68.87v161.84c0,26.4-7.81,47.12-23.42,62.15-15.61,15.04-37.65,22.55-66.11,22.55Z"></path>
    <path class="cls-1" d="M363.14,558.87l-8.26-30.99h-69.56l-8.26,30.99h-74.03l76.79-241.04h80.58l76.79,241.04h-74.03ZM300.13,472.78h39.94l-19.97-74.03-19.97,74.03Z"></path>
    <path class="cls-1" d="M702.32,317.83v241.04h-68.87v-117.42l-53.72,90.22h-6.2l-53.72-90.22v117.42h-68.87v-241.04h68.87l56.81,98.14,56.82-98.14h68.87Z"></path>
    <path class="cls-1" d="M820.08,564.38c-26.17,0-47.98-5.46-65.42-16.36-17.45-10.9-29.15-25.65-35.12-44.25l58.88-34.09c8.03,20.43,22.5,30.65,43.39,30.65,15.61,0,23.42-4.13,23.42-12.4,0-2.29-.58-4.36-1.72-6.2-1.15-1.84-3.33-3.45-6.54-4.82-3.22-1.38-6.03-2.46-8.44-3.27-2.41-.8-6.6-2.01-12.57-3.62-5.97-1.6-10.45-2.87-13.43-3.79-47.98-14.46-71.97-40.29-71.97-77.48,0-22.04,7.97-40.29,23.93-54.75,15.95-14.46,36.9-21.69,62.84-21.69,20.43,0,38.74,4.82,54.92,14.46,16.18,9.64,28.07,23.53,35.64,41.67l-57.16,33.4c-6.66-16.99-17.68-25.48-33.06-25.48-5.97,0-10.5,1.2-13.6,3.62-3.1,2.41-4.65,5.46-4.65,9.12,0,5.05,2.69,8.95,8.09,11.71,5.39,2.75,15.78,6.32,31.16,10.67,11.48,3.44,20.89,6.71,28.24,9.81,7.35,3.1,15.03,7.46,23.07,13.08,8.03,5.63,14.06,12.86,18.08,21.69,4.01,8.84,6.03,19.23,6.03,31.16,0,24.57-8.44,43.56-25.31,56.99s-39.77,20.14-68.7,20.14Z"></path>
    <path class="cls-1" d="M1824.29,495.51h89.53v63.36h-158.4v-241.04h156.67v62.67h-87.81v26.17h79.2v61.98h-79.2v26.86Z"></path>
    <path class="cls-1" d="M2041.22,317.83c33.28,0,61.12,11.54,83.5,34.61,22.38,23.07,33.57,51.71,33.57,85.91s-11.19,62.84-33.57,85.91c-22.38,23.07-50.22,34.61-83.5,34.61h-99.86v-241.04h99.86ZM2041.22,492.07c14,0,25.54-4.99,34.6-14.98,9.07-9.99,13.6-22.9,13.6-38.74s-4.53-28.75-13.6-38.74c-9.07-9.98-20.61-14.98-34.6-14.98h-27.55v107.44h27.55Z"></path>
    <path class="cls-1" d="M2349.74,540.62c-18.14,15.84-41.78,23.76-70.93,23.76s-52.8-7.92-70.93-23.76c-18.14-15.84-27.2-36.61-27.2-62.33v-160.46h68.87v152.89c0,17.91,9.75,26.86,29.27,26.86s29.27-8.95,29.27-26.86v-152.89h68.87v160.46c0,25.71-9.07,46.49-27.2,62.33Z"></path>
  </g>
  <g>
    <path class="cls-1" d="M990.61,461.88c.1.53.52.64.66.67l228.73,61.62.32.09v-89.07l-229.41-61.79-.32-.09v88.03h-2.5v.26h0v.26s2.52.03,2.52.03Z"></path>
    <path class="cls-1" d="M1311.29,724.81c0,11.66-3.67,21.14-10.6,27.42-5.7,5.17-13.17,7.91-21.61,7.91-1.26,0-2.54-.06-3.82-.18-86.94-8.53-194.81-37.04-250.91-66.32-10.3-5.36-16.69-16-16.69-27.76v-49.63l-17.07-4.6v88.04h-3.55v.26h0v.26s3.57.04,3.57.04c.1.52.51.63.65.67l337.95,91.04.32.09v-89.09s-18.26-4.9-18.26-4.9v26.78Z"></path>
    <path class="cls-1" d="M1003.98,598.67l-.07-.02-12.64,3.41c-.17.04-.69.17-.69.89v.26s0,0,0,0c.04.47.54.59.7.63l21.2,5.71.07.02,15.4-4.36-23.99-6.55Z"></path>
    <path class="cls-1" d="M991.28,581.72l228.73,61.62.32.09v-89.09l-229.41-61.77-.32-.09v88.03h-4.36v.51s4.38.04,4.38.04c.1.51.52.61.66.65Z"></path>
    <path class="cls-1" d="M1007.39,478.54l-16.11,4.35c-.17.04-.69.17-.69.89v.26s0,.01,0,.01c.04.47.54.59.7.63l228.71,61.6.32.09v-9.63l-212.87-58.18-.07-.02Z"></path>
    <path class="cls-1" d="M1103.29,642l.07.39c.3,1.82,1.5,3.43,3.22,4.3h0c32.23,16.2,68.39,25.81,107.47,28.57.15.01.3.02.45.02,1.44,0,2.83-.55,3.96-1.59l.05-.05c.06-.05.12-.11.18-.18l.23-.3-115.25-31.04-.39-.1Z"></path>
    <polygon class="cls-1" points="1329.55 464.61 1311.29 459.69 1311.29 548.76 1329.54 553.68 1329.55 464.61"></polygon>
    <polygon class="cls-1" points="1329.55 583.76 1311.29 578.86 1311.29 667.93 1329.54 672.85 1329.55 583.76"></polygon>
    <polygon class="cls-1" points="1220.33 665.54 1220.33 657.8 1127.55 632.45 1127.49 632.43 1112.58 636.52 1220 665.45 1220.33 665.54"></polygon>
    <path class="cls-1" d="M991.28,365.51l228.73,61.6.32.09v-28.72l-.19-.05c-74.29-20.13-74.29-33.77-74.29-38.26,0-10.68,1.18-23.69,3.51-38.67l.06-.39-158.19,42.61c-.17.06-.63.23-.63.89v.26h.03c.06.27.23.54.65.64Z"></path>
    <path class="cls-1" d="M991.28,178.6l231.69,62.4.14.04,57.16-58.13.21-.22-.25-.17c-2.38-1.64-3.59-3.55-3.59-5.66,0-12.46,40.49-13.43,52.9-13.43s52.92.97,52.92,13.43c0,4.15-4.57,7.43-13.57,9.74l-.09.02-54.85,78.55-.21.3,19.61,5.27.07.02,342.17-92.17c.19-.07.63-.23.63-.89,0-.34-.12-.76-.69-.91l-341.86-92.08c-.1-.04-.2-.04-.25-.04-.07,0-.16,0-.25.03l-341.87,92.09c-.57.14-.69.57-.69.91,0,.66.44.82.68.91Z"></path>
    <path class="cls-1" d="M1675.51,363.7l-158.05-42.57-.38-.1.06.39c2.13,13.84,3.31,25.95,3.5,36.06.21.84.32,1.77.32,2.69,0,12.29-25.26,25.37-75.09,38.85-41.34,11.18-86.55,18.69-112.49,18.69-6.04,0-13.37-.46-21.81-1.38l-.28-.03v35.39l22.05,5.95.07.02,342.1-92.15c.57-.14.69-.57.69-.91,0-.66-.46-.83-.68-.9Z"></path>
    <path class="cls-1" d="M1675.51,602.04l-12.29-3.31.71.71-330.54,89.27-21.79-5.96-.33-.09v7.4l22.03,5.93.07.02,342.12-92.15c.17-.04.69-.17.69-.91,0-.66-.44-.82-.68-.91Z"></path>
    <g>
      <polygon class="cls-2" points="1343.37 701.3 1337.45 702.89 1337.51 703.13 1337.44 702.89 1337.25 702.94 1337.25 792.03 1343.63 790.31 1343.63 701.55 1343.63 701.3 1343.37 701.3"></polygon>
      <path class="cls-2" d="M1173.04,254.74c-5.22,20.19-9.37,38.68-12.33,54.96-.12.68-.25,1.33-.37,1.99-.39,2.13-.78,4.41-1.19,6.95-2.72,16.29-4.09,30.27-4.09,41.53,0,2.99,11.67,13.98,64.95,28.69l.33.09v-108.63l-47.21-25.89-.08.32Z"></path>
      <path class="cls-2" d="M1357.99,188.6l-.58.07c-10.79,1.39-22.09,1.6-27.87,1.6-8.09,0-28.33-.42-41.35-4.26l-.15-.04-56.1,57.05-3.31,3.37-.61.63v422.34c0,2.11-.5,4.21-1.45,6.07-.72,1.48-1.69,2.8-2.88,3.91-2.74,2.56-6.47,3.87-10.19,3.61-40.09-2.84-77.24-12.71-110.4-29.36-4.67-2.36-7.56-7.04-7.56-12.2v-3.64c0-2.09,1.11-4.06,2.9-5.13.43-.28.93-.5,1.51-.67l21.52-5.88-71.21-19.11-.07-.02-22.19,6.28-2.66.72.79.27c.86.29,1.76.62,2.65.96,2.53,1.05,4.57,2.18,6.55,3.28,3.71,2.06,6.92,3.84,11.79,4.07l1.03.09c6.52.57,13.9,1.22,18.74,6.09l-1.42,1.61c-1.08-.86-2.31-1.56-3.79-2.16l-3.93-1.03c-1.26-.22-2.59-.33-4.08-.35-1.29-.05-2.57-.03-3.93,0-.95.02-1.91.04-2.9.02-2.11-.02-4.62-.12-7.29-.71-2.63-.7-4.92-1.74-7.13-2.75-.86-.39-1.68-.77-2.49-1.1-1.15-.49-2.17-.85-3.12-1.08-1.98-.53-3.7-.91-5.25-1.18-2.22-.36-4.18-.47-5.98-.33l-.24.02v46.2c0,8.87,4.81,16.89,12.55,20.94,55.35,28.87,162,57.02,248.1,65.47,1.03.1,2.05.15,3.05.15,6.42,0,12.17-2.05,16.44-5.91,5.29-4.81,8.08-12.32,8.08-21.72v-458.3l54.07-77.44.33-.48Z"></path>
      <path class="cls-2" d="M1333.39,408.5c24.81,0,70.09-7.56,110.09-18.38,55.74-15.06,68.28-26.97,68.28-29.96v-.26h-.29c0-.57,0-1.15-.02-1.74-.17-10.9-1.54-24.23-4.09-39.61-.44-2.7-.82-4.91-1.19-6.95l-.11-.64c-.08-.45-.16-.9-.25-1.34-3.01-16.48-7.15-34.95-12.31-54.9l-.08-.32-160,87.89-21.74-11.91-.38-.21v76.85l.23.03c8.47.96,15.83,1.44,21.87,1.44Z"></path>
      <polygon class="cls-2" points="1351.53 699.09 1351.34 699.14 1351.34 788.23 1669.27 702.59 1669.46 702.54 1669.46 613.8 1669.46 613.46 1351.53 699.09"></polygon>
      <polygon class="cls-2" points="1669.46 464.17 1669.46 375.45 1669.46 375.12 1351.53 460.78 1351.34 460.83 1351.34 549.88 1669.29 464.23 1669.46 464.17"></polygon>
      <polygon class="cls-2" points="1343.63 551.92 1343.63 463.23 1343.68 462.8 1343.31 462.98 1337.44 464.57 1337.25 464.61 1337.25 553.33 1337.26 553.66 1343.49 552 1343.63 551.92"></polygon>
      <polygon class="cls-2" points="1343.63 671.1 1343.63 582.38 1343.63 582.12 1343.37 582.12 1337.44 583.72 1337.25 583.76 1337.25 672.52 1337.26 672.86 1343.49 671.17 1343.63 671.1"></polygon>
      <polygon class="cls-2" points="1669.46 583.35 1669.46 494.62 1669.46 494.29 1351.53 579.91 1351.34 579.96 1351.34 669.07 1669.29 583.4 1669.46 583.35"></polygon>
    </g>
    <path class="cls-1" d="M1675.51,482.87l-14.05-3.78-.07-.02-327.99,88.58-21.79-5.96-.33-.09v9.29l22.03,5.93.07.02,342.12-92.15c.17-.04.69-.17.69-.91,0-.66-.46-.83-.68-.9Z"></path>
  </g>
</svg>